<svg class="main-svg" xmlns="http://www.w3.org/2000/svg" xmlns:xlink="http://www.w3.org/1999/xlink" width="700" height="500" style="" viewBox="0 0 700 500"><rect x="0" y="0" width="700" height="500" style="fill: rgb(255, 255, 255); fill-opacity: 1;"/><defs id="defs-758abb"><g class="clips"><clipPath id="clip758abbxyplot" class="plotclip"><rect width="529" height="298"/></clipPath><clipPath class="axesclip" id="clip758abbx"><rect x="91" y="0" width="529" height="500"/></clipPath><clipPath class="axesclip" id="clip758abby"><rect x="0" y="100" width="700" height="298"/></clipPath><clipPath class="axesclip" id="clip758abbxy"><rect x="91" y="100" width="529" height="298"/></clipPath></g><g class="gradients"/><g class="patterns"/></defs><g class="bglayer"><rect class="bg" x="91" y="100" width="529" height="298" style="fill: rgb(229, 236, 246); fill-opacity: 1; stroke-width: 0;"/></g><g class="layer-below"><g class="imagelayer"/><g class="shapelayer"/></g><g class="cartesianlayer"><g class="subplot xy"><g class="layer-subplot"><g class="shapelayer"/><g class="imagelayer"/></g><g class="minor-gridlayer"><g class="x"/><g class="y"/></g><g class="gridlayer"><g class="x"><path class="xgrid crisp" transform="translate(125,0)" d="M0,100v298" style="stroke: rgb(255, 255, 255); stroke-opacity: 1; stroke-width: 1px;"/><path class="xgrid crisp" transform="translate(240.25,0)" d="M0,100v298" style="stroke: rgb(255, 255, 255); stroke-opacity: 1; stroke-width: 1px;"/><path class="xgrid crisp" transform="translate(355.5,0)" d="M0,100v298" style="stroke: rgb(255, 255, 255); stroke-opacity: 1; stroke-width: 1px;"/><path class="xgrid crisp" transform="translate(470.75,0)" d="M0,100v298" style="stroke: rgb(255, 255, 255); stroke-opacity: 1; stroke-width: 1px;"/><path class="xgrid crisp" transform="translate(586,0)" d="M0,100v298" style="stroke: rgb(255, 255, 255); stroke-opacity: 1; stroke-width: 1px;"/></g><g class="y"><path class="ygrid crisp" transform="translate(0,359.61)" d="M91,0h529" style="stroke: rgb(255, 255, 255); stroke-opacity: 1; stroke-width: 1px;"/><path class="ygrid crisp" transform="translate(0,316.5)" d="M91,0h529" style="stroke: rgb(255, 255, 255); stroke-opacity: 1; stroke-width: 1px;"/><path class="ygrid crisp" transform="translate(0,273.4)" d="M91,0h529" style="stroke: rgb(255, 255, 255); stroke-opacity: 1; stroke-width: 1px;"/><path class="ygrid crisp" transform="translate(0,230.3)" d="M91,0h529" style="stroke: rgb(255, 255, 255); stroke-opacity: 1; stroke-width: 1px;"/><path class="ygrid crisp" transform="translate(0,187.19)" d="M91,0h529" style="stroke: rgb(255, 255, 255); stroke-opacity: 1; stroke-width: 1px;"/><path class="ygrid crisp" transform="translate(0,144.09)" d="M91,0h529" style="stroke: rgb(255, 255, 255); stroke-opacity: 1; stroke-width: 1px;"/></g></g><g class="zerolinelayer"/><g class="layer-between"><g class="shapelayer"/><g class="imagelayer"/></g><path class="xlines-below"/><path class="ylines-below"/><g class="overlines-below"/><g class="xaxislayer-below"/><g class="yaxislayer-below"/><g class="overaxes-below"/><g class="overplot"><g class="xy" transform="translate(91,100)" clip-path="url(#clip758abbxyplot)"><g class="scatterlayer mlayer"><g class="trace scatter trace3f3971" style="stroke-miterlimit: 2; opacity: 1;"><g class="fills"/><g class="errorbars"/><g class="lines"><path class="js-line" d="M34,179.87L264.5,141.07L379.75,110.9L495,95.81" style="vector-effect: none; fill: none; stroke: rgb(99, 110, 250); stroke-opacity: 1; stroke-width: 2px; opacity: 1;"/></g><g class="points"><path class="point" transform="translate(34,179.87)" d="M5,0A5,5 0 1,1 0,-5A5,5 0 0,1 5,0Z" style="opacity: 1; stroke-width: 1px; fill: rgb(99, 110, 250); fill-opacity: 1; stroke: rgb(0, 0, 0); stroke-opacity: 1;"/><path class="point" transform="translate(149.25,160.47)" d="M5,0A5,5 0 1,1 0,-5A5,5 0 0,1 5,0Z" style="opacity: 1; stroke-width: 1px; fill: rgb(99, 110, 250); fill-opacity: 1; stroke: rgb(0, 0, 0); stroke-opacity: 1;"/><path class="point" transform="translate(264.5,141.07)" d="M5,0A5,5 0 1,1 0,-5A5,5 0 0,1 5,0Z" style="opacity: 1; stroke-width: 1px; fill: rgb(99, 110, 250); fill-opacity: 1; stroke: rgb(0, 0, 0); stroke-opacity: 1;"/><path class="point" transform="translate(379.75,110.9)" d="M5,0A5,5 0 1,1 0,-5A5,5 0 0,1 5,0Z" style="opacity: 1; stroke-width: 1px; fill: rgb(99, 110, 250); fill-opacity: 1; stroke: rgb(0, 0, 0); stroke-opacity: 1;"/><path class="point" transform="translate(495,95.81)" d="M5,0A5,5 0 1,1 0,-5A5,5 0 0,1 5,0Z" style="opacity: 1; stroke-width: 1px; fill: rgb(99, 110, 250); fill-opacity: 1; stroke: rgb(0, 0, 0); stroke-opacity: 1;"/></g><g class="text"><g class="textpoint"/><g class="textpoint"/><g class="textpoint"/><g class="textpoint"/><g class="textpoint"/></g></g><g class="trace scatter trace10abfa" style="stroke-miterlimit: 2; opacity: 1;"><g class="fills"/><g class="errorbars"/><g class="lines"><path class="js-line" d="M34,276.85L149.25,222.97L264.5,166.93L379.75,74.26L495,29" style="vector-effect: none; fill: none; stroke: rgb(239, 85, 59); stroke-opacity: 1; stroke-width: 2px; opacity: 1;"/></g><g class="points"><path class="point" transform="translate(34,276.85)" d="M5,0A5,5 0 1,1 0,-5A5,5 0 0,1 5,0Z" style="opacity: 1; stroke-width: 1px; fill: rgb(239, 85, 59); fill-opacity: 1; stroke: rgb(0, 0, 0); stroke-opacity: 1;"/><path class="point" transform="translate(149.25,222.97)" d="M5,0A5,5 0 1,1 0,-5A5,5 0 0,1 5,0Z" style="opacity: 1; stroke-width: 1px; fill: rgb(239, 85, 59); fill-opacity: 1; stroke: rgb(0, 0, 0); stroke-opacity: 1;"/><path class="point" transform="translate(264.5,166.93)" d="M5,0A5,5 0 1,1 0,-5A5,5 0 0,1 5,0Z" style="opacity: 1; stroke-width: 1px; fill: rgb(239, 85, 59); fill-opacity: 1; stroke: rgb(0, 0, 0); stroke-opacity: 1;"/><path class="point" transform="translate(379.75,74.26)" d="M5,0A5,5 0 1,1 0,-5A5,5 0 0,1 5,0Z" style="opacity: 1; stroke-width: 1px; fill: rgb(239, 85, 59); fill-opacity: 1; stroke: rgb(0, 0, 0); stroke-opacity: 1;"/><path class="point" transform="translate(495,29)" d="M5,0A5,5 0 1,1 0,-5A5,5 0 0,1 5,0Z" style="opacity: 1; stroke-width: 1px; fill: rgb(239, 85, 59); fill-opacity: 1; stroke: rgb(0, 0, 0); stroke-opacity: 1;"/></g><g class="text"><g class="textpoint"/><g class="textpoint"/><g class="textpoint"/><g class="textpoint"/><g class="textpoint"/></g></g></g></g></g><path class="xlines-above crisp" d="M0,0" style="fill: none;"/><path class="ylines-above crisp" d="M0,0" style="fill: none;"/><g class="overlines-above"/><g class="xaxislayer-above"><g class="xtick"><text text-anchor="middle" x="0" y="411" transform="translate(125,0)" style="font-family: 'Open Sans', verdana, arial, sans-serif; font-size: 12px; fill: rgb(42, 63, 95); fill-opacity: 1; white-space: pre; opacity: 1;">5yr-TIPS</text></g><g class="xtick"><text text-anchor="middle" x="0" y="411" transform="translate(240.25,0)" style="font-family: 'Open Sans', verdana, arial, sans-serif; font-size: 12px; fill: rgb(42, 63, 95); fill-opacity: 1; white-space: pre; opacity: 1;">7yr-TIPS</text></g><g class="xtick"><text text-anchor="middle" x="0" y="411" transform="translate(355.5,0)" style="font-family: 'Open Sans', verdana, arial, sans-serif; font-size: 12px; fill: rgb(42, 63, 95); fill-opacity: 1; white-space: pre; opacity: 1;">10yr-TIPS</text></g><g class="xtick"><text text-anchor="middle" x="0" y="411" transform="translate(470.75,0)" style="font-family: 'Open Sans', verdana, arial, sans-serif; font-size: 12px; fill: rgb(42, 63, 95); fill-opacity: 1; white-space: pre; opacity: 1;">20yr-TIPS</text></g><g class="xtick"><text text-anchor="middle" x="0" y="411" transform="translate(586,0)" style="font-family: 'Open Sans', verdana, arial, sans-serif; font-size: 12px; fill: rgb(42, 63, 95); fill-opacity: 1; white-space: pre; opacity: 1;">30yr-TIPS</text></g></g><g class="yaxislayer-above"><g class="ytick"><text text-anchor="end" x="90" y="4.199999999999999" transform="translate(0,359.61)" style="font-family: 'Open Sans', verdana, arial, sans-serif; font-size: 12px; fill: rgb(42, 63, 95); fill-opacity: 1; white-space: pre; opacity: 1;">1.4</text></g><g class="ytick"><text text-anchor="end" x="90" y="4.199999999999999" style="font-family: 'Open Sans', verdana, arial, sans-serif; font-size: 12px; fill: rgb(42, 63, 95); fill-opacity: 1; white-space: pre; opacity: 1;" transform="translate(0,316.5)">1.6</text></g><g class="ytick"><text text-anchor="end" x="90" y="4.199999999999999" style="font-family: 'Open Sans', verdana, arial, sans-serif; font-size: 12px; fill: rgb(42, 63, 95); fill-opacity: 1; white-space: pre; opacity: 1;" transform="translate(0,273.4)">1.8</text></g><g class="ytick"><text text-anchor="end" x="90" y="4.199999999999999" style="font-family: 'Open Sans', verdana, arial, sans-serif; font-size: 12px; fill: rgb(42, 63, 95); fill-opacity: 1; white-space: pre; opacity: 1;" transform="translate(0,230.3)">2</text></g><g class="ytick"><text text-anchor="end" x="90" y="4.199999999999999" style="font-family: 'Open Sans', verdana, arial, sans-serif; font-size: 12px; fill: rgb(42, 63, 95); fill-opacity: 1; white-space: pre; opacity: 1;" transform="translate(0,187.19)">2.2</text></g><g class="ytick"><text text-anchor="end" x="90" y="4.199999999999999" style="font-family: 'Open Sans', verdana, arial, sans-serif; font-size: 12px; fill: rgb(42, 63, 95); fill-opacity: 1; white-space: pre; opacity: 1;" transform="translate(0,144.09)">2.4</text></g><g class="ytick"><text text-anchor="end" x="90" y="4.199999999999999" style="font-family: 'Open Sans', verdana, arial, sans-serif; font-size: 12px; fill: rgb(42, 63, 95); fill-opacity: 1; white-space: pre; opacity: 1;" transform="translate(0,100.98)">2.6</text></g></g><g class="overaxes-above"/></g></g><g class="polarlayer"/><g class="smithlayer"/><g class="ternarylayer"/><g class="geolayer"/><g class="funnelarealayer"/><g class="pielayer"/><g class="iciclelayer"/><g class="treemaplayer"/><g class="sunburstlayer"/><g class="glimages"/><defs id="topdefs-758abb"><g class="clips"/><clipPath id="legend758abb"><rect width="118" height="48" x="0" y="0"/></clipPath></defs><g class="layer-above"><g class="imagelayer"/><g class="shapelayer"/></g><g class="infolayer"><g class="legend" pointer-events="all" transform="translate(11.650000000000006,439.40000000000003)"><rect class="bg" shape-rendering="crispEdges" width="118" height="48" x="0" y="0" style="stroke: rgb(68, 68, 68); stroke-opacity: 1; fill: rgb(255, 255, 255); fill-opacity: 1; stroke-width: 0px;"/><g class="scrollbox" transform="" clip-path="url(#legend758abb)"><g class="groups"><g class="traces" transform="translate(0,14.5)" style="opacity: 1;"><text class="legendtext" text-anchor="start" x="40" y="4.680000000000001" style="font-family: 'Open Sans', verdana, arial, sans-serif; font-size: 12px; fill: rgb(42, 63, 95); fill-opacity: 1; white-space: pre;">2024-11-10</text><g class="layers" style="opacity: 1;"><g class="legendfill"/><g class="legendlines"><path class="js-line" d="M5,0h30" style="fill: none; stroke: rgb(99, 110, 250); stroke-opacity: 1; stroke-width: 2px;"/></g><g class="legendsymbols"><g class="legendpoints"><path class="scatterpts" transform="translate(20,0)" d="M5,0A5,5 0 1,1 0,-5A5,5 0 0,1 5,0Z" style="opacity: 1; stroke-width: 1px; fill: rgb(99, 110, 250); fill-opacity: 1; stroke: rgb(0, 0, 0); stroke-opacity: 1;"/></g></g></g><rect class="legendtoggle" x="0" y="-9.5" width="112.3125" height="19" style="fill: rgb(0, 0, 0); fill-opacity: 0;"/></g><g class="traces" transform="translate(0,33.5)" style="opacity: 1;"><text class="legendtext" text-anchor="start" x="40" y="4.680000000000001" style="font-family: 'Open Sans', verdana, arial, sans-serif; font-size: 12px; fill: rgb(42, 63, 95); fill-opacity: 1; white-space: pre;">2025-11-09</text><g class="layers" style="opacity: 1;"><g class="legendfill"/><g class="legendlines"><path class="js-line" d="M5,0h30" style="fill: none; stroke: rgb(239, 85, 59); stroke-opacity: 1; stroke-width: 2px;"/></g><g class="legendsymbols"><g class="legendpoints"><path class="scatterpts" transform="translate(20,0)" d="M5,0A5,5 0 1,1 0,-5A5,5 0 0,1 5,0Z" style="opacity: 1; stroke-width: 1px; fill: rgb(239, 85, 59); fill-opacity: 1; stroke: rgb(0, 0, 0); stroke-opacity: 1;"/></g></g></g><rect class="legendtoggle" x="0" y="-9.5" width="112.3125" height="19" style="fill: rgb(0, 0, 0); fill-opacity: 0;"/></g></g></g><rect class="scrollbar" rx="20" ry="3" width="0" height="0" x="0" y="0" style="fill: rgb(128, 139, 164); fill-opacity: 1;"/></g><g class="g-gtitle"><text class="gtitle" x="350" y="50" text-anchor="middle" dy="0em" style="opacity: 1; font-family: 'Open Sans', verdana, arial, sans-serif; font-size: 17px; fill: rgb(42, 63, 95); fill-opacity: 1; white-space: pre;"><tspan style="font-weight:bold">US Yield Curve - Nominal Comparative Analysis</tspan></text></g><g class="g-xtitle"/><g class="g-ytitle"><text class="ytitle" transform="rotate(-90,50.975,249)" x="50.975" y="249" text-anchor="middle" style="opacity: 1; font-family: 'Open Sans', verdana, arial, sans-serif; font-size: 14px; fill: rgb(42, 63, 95); fill-opacity: 1; white-space: pre;"><tspan style="font-weight:bold">Percent</tspan></text></g><g class="annotation" data-index="0" style="opacity: 1;"><g class="annotation-text-g" transform="rotate(0,108,262.87)"><g class="cursor-pointer" transform="translate(91,251)"><rect class="bg" x="0.5" y="0.5" width="33" height="23" style="stroke-width: 1px; stroke: rgb(31, 119, 180); stroke-opacity: 0.8; fill: rgb(31, 119, 180); fill-opacity: 0.6;"/><text class="annotation-text" text-anchor="middle" x="16.6875" y="16" style="font-family: Arial; font-size: 12px; fill: rgb(255, 255, 255); fill-opacity: 1; white-space: pre;">1.77</text></g></g></g><g class="annotation" data-index="1" style="opacity: 1;"><g class="annotation-text-g" transform="rotate(0,223.25,243.47000000000003)"><g class="cursor-pointer" transform="translate(206,231)"><rect class="bg" x="0.5" y="0.5" width="33" height="23" style="stroke-width: 1px; stroke: rgb(31, 119, 180); stroke-opacity: 0.8; fill: rgb(31, 119, 180); fill-opacity: 0.6;"/><text class="annotation-text" text-anchor="middle" x="16.6875" y="16" style="font-family: Arial; font-size: 12px; fill: rgb(255, 255, 255); fill-opacity: 1; white-space: pre;">1.86</text></g></g></g><g class="annotation" data-index="2" style="opacity: 1;"><g class="annotation-text-g" transform="rotate(0,338.5,224.07)"><g class="cursor-pointer" transform="translate(322,212)"><rect class="bg" x="0.5" y="0.5" width="33" height="23" style="stroke-width: 1px; stroke: rgb(31, 119, 180); stroke-opacity: 0.8; fill: rgb(31, 119, 180); fill-opacity: 0.6;"/><text class="annotation-text" text-anchor="middle" x="16.6875" y="16" style="font-family: Arial; font-size: 12px; fill: rgb(255, 255, 255); fill-opacity: 1; white-space: pre;">1.95</text></g></g></g><g class="annotation" data-index="3" style="opacity: 1;"><g class="annotation-text-g" transform="rotate(0,453.75,193.9)"><g class="cursor-pointer" transform="translate(437,182)"><rect class="bg" x="0.5" y="0.5" width="33" height="23" style="stroke-width: 1px; stroke: rgb(31, 119, 180); stroke-opacity: 0.8; fill: rgb(31, 119, 180); fill-opacity: 0.6;"/><text class="annotation-text" text-anchor="middle" x="16.6875" y="16" style="font-family: Arial; font-size: 12px; fill: rgb(255, 255, 255); fill-opacity: 1; white-space: pre;">2.09</text></g></g></g><g class="annotation" data-index="4" style="opacity: 1;"><g class="annotation-text-g" transform="rotate(0,569,178.81)"><g class="cursor-pointer" transform="translate(552,167)"><rect class="bg" x="0.5" y="0.5" width="33" height="23" style="stroke-width: 1px; stroke: rgb(31, 119, 180); stroke-opacity: 0.8; fill: rgb(31, 119, 180); fill-opacity: 0.6;"/><text class="annotation-text" text-anchor="middle" x="16.6875" y="16" style="font-family: Arial; font-size: 12px; fill: rgb(255, 255, 255); fill-opacity: 1; white-space: pre;">2.16</text></g></g></g><g class="annotation" data-index="5" style="opacity: 1;"><g class="annotation-text-g" transform="rotate(0,142,359.85)"><g class="cursor-pointer" transform="translate(125,348)"><rect class="bg" x="0.5" y="0.5" width="33" height="23" style="stroke-width: 1px; stroke: rgb(255, 127, 14); stroke-opacity: 0.8; fill: rgb(255, 127, 14); fill-opacity: 0.6;"/><text class="annotation-text" text-anchor="middle" x="16.6875" y="16" style="font-family: Arial; font-size: 12px; fill: rgb(255, 255, 255); fill-opacity: 1; white-space: pre;">1.32</text></g></g></g><g class="annotation" data-index="6" style="opacity: 1;"><g class="annotation-text-g" transform="rotate(0,257.25,305.97)"><g class="cursor-pointer" transform="translate(240,294)"><rect class="bg" x="0.5" y="0.5" width="33" height="23" style="stroke-width: 1px; stroke: rgb(255, 127, 14); stroke-opacity: 0.8; fill: rgb(255, 127, 14); fill-opacity: 0.6;"/><text class="annotation-text" text-anchor="middle" x="16.6875" y="16" style="font-family: Arial; font-size: 12px; fill: rgb(255, 255, 255); fill-opacity: 1; white-space: pre;">1.57</text></g></g></g><g class="annotation" data-index="7" style="opacity: 1;"><g class="annotation-text-g" transform="rotate(0,372.5,249.93)"><g class="cursor-pointer" transform="translate(356,238)"><rect class="bg" x="0.5" y="0.5" width="33" height="23" style="stroke-width: 1px; stroke: rgb(255, 127, 14); stroke-opacity: 0.8; fill: rgb(255, 127, 14); fill-opacity: 0.6;"/><text class="annotation-text" text-anchor="middle" x="16.6875" y="16" style="font-family: Arial; font-size: 12px; fill: rgb(255, 255, 255); fill-opacity: 1; white-space: pre;">1.83</text></g></g></g><g class="annotation" data-index="8" style="opacity: 1;"><g class="annotation-text-g" transform="rotate(0,487.75,157.26)"><g class="cursor-pointer" transform="translate(471,145)"><rect class="bg" x="0.5" y="0.5" width="33" height="23" style="stroke-width: 1px; stroke: rgb(255, 127, 14); stroke-opacity: 0.8; fill: rgb(255, 127, 14); fill-opacity: 0.6;"/><text class="annotation-text" text-anchor="middle" x="16.6875" y="16" style="font-family: Arial; font-size: 12px; fill: rgb(255, 255, 255); fill-opacity: 1; white-space: pre;">2.26</text></g></g></g><g class="annotation" data-index="9" style="opacity: 1;"><g class="annotation-text-g" transform="rotate(0,603,112)"><g class="cursor-pointer" transform="translate(586,100)"><rect class="bg" x="0.5" y="0.5" width="33" height="23" style="stroke-width: 1px; stroke: rgb(255, 127, 14); stroke-opacity: 0.8; fill: rgb(255, 127, 14); fill-opacity: 0.6;"/><text class="annotation-text" text-anchor="middle" x="16.6875" y="16" style="font-family: Arial; font-size: 12px; fill: rgb(255, 255, 255); fill-opacity: 1; white-space: pre;">2.47</text></g></g></g></g></svg>