<svg class="main-svg" xmlns="http://www.w3.org/2000/svg" xmlns:xlink="http://www.w3.org/1999/xlink" width="700" height="500" style="" viewBox="0 0 700 500"><rect x="0" y="0" width="700" height="500" style="fill: rgb(255, 255, 255); fill-opacity: 1;"/><defs id="defs-5a0ee6"><g class="clips"><clipPath id="clip5a0ee6xyplot" class="plotclip"><rect width="507.59999999999997" height="312"/></clipPath><clipPath id="clip5a0ee6xy2plot" class="plotclip"><rect width="507.59999999999997" height="312"/></clipPath><clipPath class="axesclip" id="clip5a0ee6x"><rect x="80" y="0" width="507.59999999999997" height="500"/></clipPath><clipPath class="axesclip" id="clip5a0ee6y"><rect x="0" y="100" width="700" height="312"/></clipPath><clipPath class="axesclip" id="clip5a0ee6xy"><rect x="80" y="100" width="507.59999999999997" height="312"/></clipPath><clipPath class="axesclip" id="clip5a0ee6y2"><rect x="0" y="100" width="700" height="312"/></clipPath><clipPath class="axesclip" id="clip5a0ee6xy2"><rect x="80" y="100" width="507.59999999999997" height="312"/></clipPath></g><g class="gradients"/><g class="patterns"/></defs><g class="bglayer"><rect class="bg" x="80" y="100" width="507.59999999999997" height="312" style="fill: rgb(229, 236, 246); fill-opacity: 1; stroke-width: 0;"/></g><g class="layer-below"><g class="imagelayer"/><g class="shapelayer"/></g><g class="cartesianlayer"><g class="subplot xy"><g class="layer-subplot"><g class="shapelayer"/><g class="imagelayer"/></g><g class="minor-gridlayer"><g class="x"/><g class="y"/><g class="y2"/></g><g class="gridlayer"><g class="x"><path class="xgrid crisp" transform="translate(131.73,0)" d="M0,100v312" style="stroke: rgb(255, 255, 255); stroke-opacity: 1; stroke-width: 1px;"/><path class="xgrid crisp" transform="translate(261.05,0)" d="M0,100v312" style="stroke: rgb(255, 255, 255); stroke-opacity: 1; stroke-width: 1px;"/><path class="xgrid crisp" transform="translate(390.4,0)" d="M0,100v312" style="stroke: rgb(255, 255, 255); stroke-opacity: 1; stroke-width: 1px;"/><path class="xgrid crisp" transform="translate(519.72,0)" d="M0,100v312" style="stroke: rgb(255, 255, 255); stroke-opacity: 1; stroke-width: 1px;"/></g><g class="y"><path class="ygrid crisp" transform="translate(0,362.36)" d="M80,0h507.59999999999997" style="stroke: rgb(255, 255, 255); stroke-opacity: 1; stroke-width: 1px;"/><path class="ygrid crisp" transform="translate(0,220.43)" d="M80,0h507.59999999999997" style="stroke: rgb(255, 255, 255); stroke-opacity: 1; stroke-width: 1px;"/><path class="ygrid crisp" transform="translate(0,149.46)" d="M80,0h507.59999999999997" style="stroke: rgb(255, 255, 255); stroke-opacity: 1; stroke-width: 1px;"/></g><g class="y2"><path class="y2grid crisp" transform="translate(0,397.37)" d="M80,0h507.59999999999997" style="stroke: rgb(255, 255, 255); stroke-opacity: 1; stroke-width: 1px;"/><path class="y2grid crisp" transform="translate(0,337.23)" d="M80,0h507.59999999999997" style="stroke: rgb(255, 255, 255); stroke-opacity: 1; stroke-width: 1px;"/><path class="y2grid crisp" transform="translate(0,216.97)" d="M80,0h507.59999999999997" style="stroke: rgb(255, 255, 255); stroke-opacity: 1; stroke-width: 1px;"/><path class="y2grid crisp" transform="translate(0,156.82999999999998)" d="M80,0h507.59999999999997" style="stroke: rgb(255, 255, 255); stroke-opacity: 1; stroke-width: 1px;"/></g></g><g class="zerolinelayer"><path class="yzl zl crisp" transform="translate(0,291.39)" d="M80,0h507.59999999999997" style="stroke: rgb(255, 255, 255); stroke-opacity: 1; stroke-width: 2px;"/><path class="y2zl zl crisp" transform="translate(0,277.1)" d="M80,0h507.59999999999997" style="stroke: rgb(255, 255, 255); stroke-opacity: 1; stroke-width: 2px;"/></g><g class="layer-between"><g class="shapelayer"/><g class="imagelayer"/></g><path class="xlines-below"/><path class="ylines-below"/><g class="overlines-below"><path class="xy2-x"/><path class="xy2-y"/></g><g class="xaxislayer-below"/><g class="yaxislayer-below"/><g class="overaxes-below"><g class="xy2-x"/><g class="xy2-y"/></g><g class="overplot"><g class="xy" transform="translate(80,100)" clip-path="url(#clip5a0ee6xyplot)"><g class="scatterlayer mlayer"><g class="trace scatter trace467891" style="stroke-miterlimit: 2; opacity: 1;"><g class="fills"/><g class="errorbars"/><g class="lines"><path class="js-line" d="M0,132.54L3.19,138.85L6.41,147.12L12.92,152.91L16.11,143.79L19.33,145.09L22.59,127.88L25.85,131.19L29.07,127.74L32.29,131.88L35.55,137.47L38.81,130.15L42,138.2L45.22,135.93L48.48,152.46L51.73,151.35L54.92,157.15L58.14,166.87L61.4,182.83L64.66,204.88L67.85,199.04L71.07,192.85L74.33,174.84L77.58,150.81L80.81,146.4L84.03,139.37L87.29,129.19L90.54,144.27L93.73,151.56L96.95,158.94L100.21,154.38L106.65,131.42L109.88,129.83L113.13,132.97L116.39,141.98L119.58,157.29L122.8,153.45L126.06,160.17L129.32,154.47L132.54,134.58L135.76,133.91L139.02,128.64L142.28,130.16L145.46,130.2L148.69,125.04L151.94,127.76L155.2,122.48L158.39,133.3L161.61,133.15L164.87,122.08L168.13,123.03L171.31,124.37L174.54,123.39L177.79,122.93L181.05,131.43L184.27,116.96L187.5,135L190.75,150.15L194.01,160.2L197.2,177.25L200.42,184.45L203.68,189.02L206.94,172.41L210.12,172.58L213.34,160.93L216.6,163.11L219.86,167.56L223.05,163.64L226.27,145.53L229.53,130.35L232.78,129.77L236.01,131.39L239.23,141.79L242.49,143.83L245.74,135.91L248.93,140.04L252.15,142.44L255.41,149.2L258.67,145.79L261.86,149.2L265.08,158.39L268.34,154L271.59,169.01L278,157.78L281.26,161.11L284.52,171.63L287.74,171.86L290.96,187.62L294.22,227.46L300.66,247.86L303.89,235.86L307.14,189.89L310.4,166.62L313.59,150.04L316.81,143.93L320.07,151.99L323.33,162.47L326.51,166.64L329.74,178.01L332.99,169.49L336.25,153.95L339.47,157.28L342.7,154.86L345.95,169.37L349.21,167.25L352.4,169.82L355.62,159.64L358.88,148.68L362.14,167.96L365.32,153.22L368.55,147.96L371.8,153.27L375.06,135.05L381.47,156.66L384.73,161.3L391.21,170.2L394.43,165.76L397.69,160.43L400.95,161.76L404.13,158.32L407.35,157.17L410.61,148.89L413.87,144.14L417.06,144.57L420.28,146.97L423.54,161.23L426.79,163.95L429.98,159.57L433.2,151.69L436.46,143.82L439.72,172.11L442.94,296.4L446.16,210.76L449.42,204.48L452.68,165.83L455.87,15.6L459.09,118.28L462.35,109.69L465.6,134.13L468.79,156.56L472.01,158.05L475.27,172.7L478.53,158.59L484.94,145.5L488.2,143.26L491.45,150.75L494.68,147.01L504.41,162.73L507.6,161.86" style="vector-effect: none; fill: none; stroke: rgb(0, 0, 255); stroke-opacity: 1; stroke-width: 2px; opacity: 1;"/></g><g class="points"/><g class="text"/></g></g></g><g class="xy2" transform="translate(80,100)" clip-path="url(#clip5a0ee6xy2plot)"><g class="scatterlayer mlayer"><g class="trace scatter tracebfd99a" style="stroke-miterlimit: 2; opacity: 1;"><g class="fills"/><g class="errorbars"/><g class="lines"><path class="js-line" d="M0,80.17L3.19,84.65L6.41,95.79L9.67,133.14L12.92,110.65L16.11,113.38L19.33,59.46L22.59,171L25.85,210.92L29.07,207.27L32.29,223.74L35.55,139.82L38.81,135.31L42,128.2L45.22,91.69L48.48,95.17L51.73,131.14L54.92,139.24L58.14,214.22L61.4,196.82L64.66,145.9L67.85,166.07L71.07,96.73L74.33,98.01L77.58,154.29L80.81,147.14L84.03,153.89L87.29,163.68L90.54,141.37L93.73,145.87L96.95,147.5L100.21,155.89L103.47,181.03L106.65,181.28L109.88,174.62L113.13,181.73L116.39,140.04L119.58,109.1L122.8,98.02L126.06,74.54L129.32,90.16L135.76,124.15L139.02,116.17L142.28,125.11L145.46,80.93L148.69,63.39L151.94,83.87L155.2,40.24L158.39,92.62L161.61,154.97L164.87,96.92L168.13,126.72L171.31,113.76L174.54,98.55L177.79,118.39L181.05,127.5L184.27,159.16L187.5,141.05L190.75,207.59L194.01,244.96L197.2,224.69L200.42,259.89L203.68,216.32L206.94,180.45L210.12,234.7L213.34,242.28L216.6,247.35L219.86,255.51L223.05,181.75L226.27,110.46L229.53,97.78L232.78,78.54L236.01,125.78L239.23,141.29L242.49,150.06L245.74,162.58L248.93,163.79L252.15,146.29L255.41,168.08L258.67,148L261.86,157.2L265.08,150.91L268.34,136.15L271.59,147.85L274.78,121.91L278,134.13L281.26,166.49L287.74,221.77L290.96,248.07L294.22,292.81L297.48,296.4L300.66,261.82L303.89,205.27L307.14,106.58L310.4,37.08L313.59,140.67L316.81,153.17L320.07,138.67L323.33,136.89L326.51,92.53L329.74,179.68L332.99,177.11L336.25,158.36L339.47,167.65L342.7,94.92L345.95,136.79L349.21,142.79L352.4,123.22L355.62,126.83L358.88,88.1L362.14,119.02L365.32,110.85L368.55,125.12L371.8,142.85L375.06,145.7L378.25,161.32L381.47,185.07L384.73,179.28L387.99,178.29L391.21,171.89L394.43,138.23L397.69,148.43L400.95,132.87L407.35,128.42L410.61,118.71L413.87,141.7L417.06,140.51L420.28,130.01L423.54,195.85L426.79,155.07L429.98,152.39L433.2,170.62L436.46,90.27L439.72,203.6L442.94,160.9L446.16,138.09L449.42,128.22L452.68,15.6L455.87,61L459.09,92.66L462.35,96.24L465.6,134.91L468.79,212.93L472.01,227.49L475.27,235.56L478.53,205.05L481.72,124.28L484.94,118.2L488.2,104.25L491.45,93.32L494.68,108.86L497.9,73.72L501.16,107.02L504.41,156.64L507.6,136.11" style="vector-effect: none; fill: none; stroke: rgb(255, 165, 0); stroke-opacity: 1; stroke-width: 2px; opacity: 1;"/></g><g class="points"/><g class="text"/></g></g></g></g><path class="xlines-above crisp" d="M0,0" style="fill: none;"/><path class="ylines-above crisp" d="M0,0" style="fill: none;"/><g class="overlines-above"><path class="xy2-x crisp" d="M0,0" style="fill: none;"/><path class="xy2-y crisp" d="M0,0" style="fill: none;"/></g><g class="xaxislayer-above"><g class="xtick"><text text-anchor="middle" x="0" y="425" transform="translate(131.73,0)" style="font-family: 'Open Sans', verdana, arial, sans-serif; font-size: 12px; fill: rgb(42, 63, 95); fill-opacity: 1; white-space: pre; opacity: 1;">1990</text></g><g class="xtick"><text text-anchor="middle" x="0" y="425" style="font-family: 'Open Sans', verdana, arial, sans-serif; font-size: 12px; fill: rgb(42, 63, 95); fill-opacity: 1; white-space: pre; opacity: 1;" transform="translate(261.05,0)">2000</text></g><g class="xtick"><text text-anchor="middle" x="0" y="425" style="font-family: 'Open Sans', verdana, arial, sans-serif; font-size: 12px; fill: rgb(42, 63, 95); fill-opacity: 1; white-space: pre; opacity: 1;" transform="translate(390.4,0)">2010</text></g><g class="xtick"><text text-anchor="middle" x="0" y="425" style="font-family: 'Open Sans', verdana, arial, sans-serif; font-size: 12px; fill: rgb(42, 63, 95); fill-opacity: 1; white-space: pre; opacity: 1;" transform="translate(519.72,0)">2020</text></g></g><g class="yaxislayer-above"><g class="ytick"><text text-anchor="end" x="79" y="4.199999999999999" transform="translate(0,362.36)" style="font-family: 'Open Sans', verdana, arial, sans-serif; font-size: 12px; fill: rgb(42, 63, 95); fill-opacity: 1; white-space: pre; opacity: 1;">−0.05</text></g><g class="ytick"><text text-anchor="end" x="79" y="4.199999999999999" style="font-family: 'Open Sans', verdana, arial, sans-serif; font-size: 12px; fill: rgb(42, 63, 95); fill-opacity: 1; white-space: pre; opacity: 1;" transform="translate(0,291.39)">0</text></g><g class="ytick"><text text-anchor="end" x="79" y="4.199999999999999" style="font-family: 'Open Sans', verdana, arial, sans-serif; font-size: 12px; fill: rgb(42, 63, 95); fill-opacity: 1; white-space: pre; opacity: 1;" transform="translate(0,220.43)">0.05</text></g><g class="ytick"><text text-anchor="end" x="79" y="4.199999999999999" style="font-family: 'Open Sans', verdana, arial, sans-serif; font-size: 12px; fill: rgb(42, 63, 95); fill-opacity: 1; white-space: pre; opacity: 1;" transform="translate(0,149.46)">0.1</text></g></g><g class="overaxes-above"><g class="xy2-x"/><g class="xy2-y"><g class="y2tick"><text text-anchor="start" x="588.5999999999999" y="4.199999999999999" transform="translate(0,397.37)" style="font-family: 'Open Sans', verdana, arial, sans-serif; font-size: 12px; fill: rgb(42, 63, 95); fill-opacity: 1; white-space: pre; opacity: 1;">−0.4</text></g><g class="y2tick"><text text-anchor="start" x="588.5999999999999" y="4.199999999999999" style="font-family: 'Open Sans', verdana, arial, sans-serif; font-size: 12px; fill: rgb(42, 63, 95); fill-opacity: 1; white-space: pre; opacity: 1;" transform="translate(0,337.23)">−0.2</text></g><g class="y2tick"><text text-anchor="start" x="588.5999999999999" y="4.199999999999999" style="font-family: 'Open Sans', verdana, arial, sans-serif; font-size: 12px; fill: rgb(42, 63, 95); fill-opacity: 1; white-space: pre; opacity: 1;" transform="translate(0,277.1)">0</text></g><g class="y2tick"><text text-anchor="start" x="588.5999999999999" y="4.199999999999999" style="font-family: 'Open Sans', verdana, arial, sans-serif; font-size: 12px; fill: rgb(42, 63, 95); fill-opacity: 1; white-space: pre; opacity: 1;" transform="translate(0,216.97)">0.2</text></g><g class="y2tick"><text text-anchor="start" x="588.5999999999999" y="4.199999999999999" style="font-family: 'Open Sans', verdana, arial, sans-serif; font-size: 12px; fill: rgb(42, 63, 95); fill-opacity: 1; white-space: pre; opacity: 1;" transform="translate(0,156.82999999999998)">0.4</text></g></g></g></g><g class="subplot xy2"/></g><g class="polarlayer"/><g class="smithlayer"/><g class="ternarylayer"/><g class="geolayer"/><g class="funnelarealayer"/><g class="pielayer"/><g class="iciclelayer"/><g class="treemaplayer"/><g class="sunburstlayer"/><g class="glimages"/><defs id="topdefs-5a0ee6"><g class="clips"/><clipPath id="legend5a0ee6"><rect width="199" height="29" x="0" y="0"/></clipPath></defs><g class="layer-above"><g class="imagelayer"/><g class="shapelayer"/></g><g class="infolayer"><g class="legend" pointer-events="all" transform="translate(250.5,458.79999999999995)"><rect class="bg" shape-rendering="crispEdges" width="199" height="29" x="0" y="0" style="stroke: rgb(68, 68, 68); stroke-opacity: 1; fill: rgb(255, 255, 255); fill-opacity: 1; stroke-width: 0px;"/><g class="scrollbox" transform="" clip-path="url(#legend5a0ee6)"><g class="groups"><g class="traces" transform="translate(0,14.5)" style="opacity: 1;"><text class="legendtext" text-anchor="start" x="40" y="4.680000000000001" style="font-family: 'Open Sans', verdana, arial, sans-serif; font-size: 12px; fill: rgb(42, 63, 95); fill-opacity: 1; white-space: pre;">Real GDP</text><g class="layers" style="opacity: 1;"><g class="legendfill"/><g class="legendlines"><path class="js-line" d="M5,0h30" style="fill: none; stroke: rgb(0, 0, 255); stroke-opacity: 1; stroke-width: 2px;"/></g><g class="legendsymbols"><g class="legendpoints"/></g></g><rect class="legendtoggle" x="0" y="-9.5" width="98.96875" height="19" style="fill: rgb(0, 0, 0); fill-opacity: 0;"/></g><g class="traces" transform="translate(101.46875,14.5)" style="opacity: 1;"><text class="legendtext" text-anchor="start" x="40" y="4.680000000000001" style="font-family: 'Open Sans', verdana, arial, sans-serif; font-size: 12px; fill: rgb(42, 63, 95); fill-opacity: 1; white-space: pre;">S&amp;P 500</text><g class="layers" style="opacity: 1;"><g class="legendfill"/><g class="legendlines"><path class="js-line" d="M5,0h30" style="fill: none; stroke: rgb(255, 165, 0); stroke-opacity: 1; stroke-width: 2px;"/></g><g class="legendsymbols"><g class="legendpoints"/></g></g><rect class="legendtoggle" x="0" y="-9.5" width="94.140625" height="19" style="fill: rgb(0, 0, 0); fill-opacity: 0;"/></g></g></g><rect class="scrollbar" rx="20" ry="3" width="0" height="0" x="0" y="0" style="fill: rgb(128, 139, 164); fill-opacity: 1;"/></g><g class="g-gtitle"><text class="gtitle" x="350" y="50" text-anchor="middle" dy="0em" style="opacity: 1; font-family: 'Open Sans', verdana, arial, sans-serif; font-size: 17px; fill: rgb(42, 63, 95); fill-opacity: 1; white-space: pre;">YoY Comparison: S&amp;P 500 vs Real GDP</text></g><g class="g-xtitle"><text class="xtitle" x="333.79999999999995" y="452.3" text-anchor="middle" style="opacity: 1; font-family: 'Open Sans', verdana, arial, sans-serif; font-size: 14px; fill: rgb(42, 63, 95); fill-opacity: 1; white-space: pre;">Date</text></g><g class="g-ytitle"><text class="ytitle" transform="rotate(-90,22.521875,256)" x="22.521875" y="256" text-anchor="middle" style="opacity: 1; font-family: 'Open Sans', verdana, arial, sans-serif; font-size: 14px; fill: rgb(42, 63, 95); fill-opacity: 1; white-space: pre;">Real GDP</text></g><g class="g-y2title"><text class="y2title" transform="rotate(-90,642.721875,256)" x="642.721875" y="256" text-anchor="middle" style="opacity: 1; font-family: 'Open Sans', verdana, arial, sans-serif; font-size: 14px; fill: rgb(42, 63, 95); fill-opacity: 1; white-space: pre;">S&amp;P 500</text></g></g></svg>